<svg version="1.2" xmlns="http://www.w3.org/2000/svg" viewBox="0 0 221 221" width="221" height="221">
	<title>capybara-dark</title>
	<style>
		.s0 { fill: #000000 } 
	</style>
	<path class="s0" d="m105.3 29.52c-4.26 2.51-6.62 11.9-4.3 15.89 3.42 5.88 23.28 0.72 24-3.41 0.69-3.97-13.66-16.04-19.7-12.48zm40.05 137.53c20.31-1.07 35.71-0.45 54.26-6.01 5.3-1.7 9.5-5.8 11.2-11 4.59-14.33 5.39-14.22 10.11-43.63 0.31-1.97-0.36-2.77-2.56-3.44-2.03-0.62-3.75-0.48-4.95-0.18-1.21 0.3-1.99-0.95-2.13-1.72-2.17-11.86-18.68-10.08-15.42 1.24 0.18 0.65 0.14 2.21-1.02 2.34-1.22 0.14-3.03 0.24-5.36 0.03-1.98-0.18-4.76-3.08-6.36-7.86-1.62-4.82-0.86-8.25 1.06-9.32 5.42-3.03 17.79-8.5 32.71-5.83 0.9 0.16 2.14-1.34 1.79-2.25-0.8-2.07-1.79-3.97-2.97-5.78-13.56-20.44-54.97-36.21-118.83-16.23-1.88 0.59-3.88-0.41-5.27-1.83-9.06-9.22-16.64-14.5-23.9-14.47-3.5 0-6.6 1.01-9 2.73-6.72 4.82-7.36 15.36 5.54 26.19 1.75 1.47 1.75 3.47 0.29 5.3-11.29 14.1-32.2 38.61-59.02 43.85-6.6 1.29-3.68 12.59-2.02 18.12 1.83 6.08 7.8 26.47 40.64 38.29 32.16 11.56 55.53 16.18 75.03 15.62 13.87-0.4 12.93-23.46 26.18-24.16zm-31.45-91.13c5.08-0.93 11.18-0.02 15.84 3.2 1.16 0.8 0.85 1.88-0.63 2.15 0 0-5.9 1.08-7.87 1.44-0.55 0.1-0.89 0.67-0.8 1.16 0.36 1.97-2.54 3.51-4.38 3.85-2.2 0.4-5.1-0.08-5.46-2.05-0.09-0.49-0.67-0.9-1.16-0.81-1.97 0.36-6.89 1.26-6.89 1.26-1.47 0.27-2.15-0.62-1.34-1.78 3.21-4.66 7.78-7.53 12.69-8.42z"/>
</svg>