<svg version="1.2" xmlns="http://www.w3.org/2000/svg" viewBox="0 0 459 374" width="459" height="374">
	<title>capybara-dark</title>
	<style>
		.s0 { fill: #000000 } 
	</style>
	<path class="s0" d="m343.3 0.52c-4.26 2.51-6.62 11.9-4.3 15.89 3.42 5.88 23.28 0.72 24-3.41 0.69-3.97-13.66-16.04-19.7-12.48zm29.26 239.71c9.61-43.05 2.26-78.73-0.7-95.47-0.84-4.7 3.14-7.26 7.18-7 20.3 1.29 40.02-0.16 58.57-5.72 5.3-1.7 9.5-5.8 11.2-11 4.59-14.33 5.39-14.22 10.11-43.63 0.31-1.97-0.36-2.77-2.56-3.44-2.03-0.62-3.75-0.48-4.95-0.18-1.21 0.3-1.99-0.95-2.13-1.72-2.17-11.86-18.68-10.08-15.42 1.24 0.18 0.65 0.14 2.21-1.02 2.34-1.22 0.14-3.03 0.24-5.36 0.03-1.98-0.18-4.76-3.08-6.36-7.86-1.62-4.82-0.86-8.25 1.06-9.32 5.42-3.03 17.79-8.5 32.71-5.83 0.9 0.16 2.14-1.34 1.79-2.25-0.8-2.07-1.79-3.97-2.97-5.78-13.56-20.44-54.97-36.21-118.83-16.23-1.88 0.59-3.88-0.41-5.27-1.83-9.06-9.22-16.64-14.5-23.9-14.47-3.5 0-6.6 1.01-9 2.73-6.72 4.82-7.36 15.36 5.54 26.19 1.75 1.47 1.75 3.47 0.29 5.3-11.29 14.1-31.97 38.87-59.02 43.85-2.75 0.51-2.91 3.87-0.42 4.64 3.71 1.15 13.78-1.84 23.9 0.18 7.5 1.5 6.29 7.45-0.5 7.5-208.65 1.42-255.33 79.03-264 94-3.72 6.43-0.5 11.5-0.5 11.5 51.1 69.9 28.9 83.46 8 94-5.64 2.84-7 7.5-6 13 7.43 40.87 7.18 32.03 9.11 47.47 2 16 26.08 12.79 26.72 3.54 1.04-15.1 2.25-27.01 3.17-33.01 1-6.5 2.5-7.5 7-10 5.26-2.92 17.8-15.28 52-54.5 3.2-3.67 71.97 8.79 74.2 8.96 24.81 1.87 47.8 1.02 80.38-6.1 6.95-1.52 10.24 57.05 19.21 92.93 3 12 25.07 12.87 27.5-1 10.5-60-0.19-69.53 22.42-95.74 2.54-2.95 6.14-1.18 4.57 2.86-2.45 6.27-11.38 18.6-9.87 31.62 4.23 36.44 5.81 72.16 21.39 71.31 18.77-1.03 0.21-45.16 5.41-56.25 2.99-6.37 17.62-42.21 25.35-76.86zm-20.66-193.31c5.08-0.93 11.18-0.02 15.84 3.2 1.16 0.8 0.85 1.88-0.63 2.15 0 0-5.9 1.08-7.87 1.44-0.55 0.1-0.89 0.67-0.8 1.16 0.36 1.97-2.54 3.51-4.38 3.85-2.2 0.4-5.1-0.08-5.46-2.05-0.09-0.49-0.67-0.9-1.16-0.81-1.97 0.36-6.89 1.26-6.89 1.26-1.47 0.27-2.15-0.62-1.34-1.78 3.21-4.66 7.78-7.53 12.69-8.42zm-256.15 242.81c-10.54 13.96-15.86 16.4-15.4 20.8 1.54 14.59 4.86 12.62 5.32 25.04 0.63 17.13-7.69 14.67-0.62 32.66 3.12 7.96 15.9 7.35 16.97-1.44 3.29-27.09 12.18-22.04 11.14-56.78-0.26-8.7 2.82-24.63-3.87-25.62-6.77-1-9.19-0.41-13.54 5.34z"/>
</svg>